%TF.GenerationSoftware,KiCad,Pcbnew,9.0.6*%
%TF.CreationDate,2026-01-01T16:42:10+02:00*%
%TF.ProjectId,RouterSupplySwitcherSource,526f7574-6572-4537-9570-706c79537769,rev?*%
%TF.SameCoordinates,Original*%
%TF.FileFunction,Soldermask,Top*%
%TF.FilePolarity,Negative*%
%FSLAX46Y46*%
G04 Gerber Fmt 4.6, Leading zero omitted, Abs format (unit mm)*
G04 Created by KiCad (PCBNEW 9.0.6) date 2026-01-01 16:42:10*
%MOMM*%
%LPD*%
G01*
G04 APERTURE LIST*
G04 Aperture macros list*
%AMRoundRect*
0 Rectangle with rounded corners*
0 $1 Rounding radius*
0 $2 $3 $4 $5 $6 $7 $8 $9 X,Y pos of 4 corners*
0 Add a 4 corners polygon primitive as box body*
4,1,4,$2,$3,$4,$5,$6,$7,$8,$9,$2,$3,0*
0 Add four circle primitives for the rounded corners*
1,1,$1+$1,$2,$3*
1,1,$1+$1,$4,$5*
1,1,$1+$1,$6,$7*
1,1,$1+$1,$8,$9*
0 Add four rect primitives between the rounded corners*
20,1,$1+$1,$2,$3,$4,$5,0*
20,1,$1+$1,$4,$5,$6,$7,0*
20,1,$1+$1,$6,$7,$8,$9,0*
20,1,$1+$1,$8,$9,$2,$3,0*%
G04 Aperture macros list end*
%ADD10RoundRect,0.250000X-0.350000X0.350000X-0.350000X-0.350000X0.350000X-0.350000X0.350000X0.350000X0*%
%ADD11C,1.200000*%
%ADD12RoundRect,0.102000X-1.605000X-0.525000X1.605000X-0.525000X1.605000X0.525000X-1.605000X0.525000X0*%
%ADD13RoundRect,0.102000X-4.230000X-5.265000X4.230000X-5.265000X4.230000X5.265000X-4.230000X5.265000X0*%
%ADD14RoundRect,0.250000X0.350000X-0.350000X0.350000X0.350000X-0.350000X0.350000X-0.350000X-0.350000X0*%
%ADD15RoundRect,0.102000X1.590000X-1.125000X1.590000X1.125000X-1.590000X1.125000X-1.590000X-1.125000X0*%
%ADD16R,2.700000X3.600000*%
%ADD17C,1.440000*%
%ADD18RoundRect,0.250000X0.325000X1.100000X-0.325000X1.100000X-0.325000X-1.100000X0.325000X-1.100000X0*%
%ADD19R,2.000000X4.600000*%
%ADD20O,2.000000X4.200000*%
%ADD21O,4.200000X2.000000*%
%ADD22RoundRect,0.250000X1.100000X-0.325000X1.100000X0.325000X-1.100000X0.325000X-1.100000X-0.325000X0*%
%ADD23RoundRect,0.325000X1.175000X-0.325000X1.175000X0.325000X-1.175000X0.325000X-1.175000X-0.325000X0*%
%ADD24O,2.900000X1.200000*%
%ADD25C,1.600000*%
%ADD26RoundRect,0.250001X-0.949999X0.949999X-0.949999X-0.949999X0.949999X-0.949999X0.949999X0.949999X0*%
%ADD27C,2.400000*%
%ADD28C,0.650000*%
%ADD29RoundRect,0.150000X-0.425000X0.150000X-0.425000X-0.150000X0.425000X-0.150000X0.425000X0.150000X0*%
%ADD30RoundRect,0.075000X-0.500000X0.075000X-0.500000X-0.075000X0.500000X-0.075000X0.500000X0.075000X0*%
%ADD31O,2.100000X1.000000*%
%ADD32O,1.800000X1.000000*%
%ADD33RoundRect,0.250001X0.949999X-0.949999X0.949999X0.949999X-0.949999X0.949999X-0.949999X-0.949999X0*%
G04 APERTURE END LIST*
D10*
%TO.C,C1*%
X122955000Y-98072401D03*
D11*
X122955000Y-100072401D03*
%TD*%
D12*
%TO.C,VR1*%
X130325000Y-86645000D03*
X130325000Y-88345000D03*
X130325000Y-90045000D03*
X130325000Y-91745000D03*
X130325000Y-93445000D03*
D13*
X139955000Y-90045000D03*
%TD*%
D14*
%TO.C,C4*%
X145455000Y-102517600D03*
D11*
X145455000Y-100517600D03*
%TD*%
D15*
%TO.C,D3*%
X148455000Y-82090000D03*
X148455000Y-89000000D03*
%TD*%
D16*
%TO.C,L1*%
X130305000Y-78045000D03*
X138605000Y-78045000D03*
%TD*%
D17*
%TO.C,RV1*%
X137955000Y-97465000D03*
X137955000Y-100005000D03*
X137955000Y-102545000D03*
%TD*%
D18*
%TO.C,C3*%
X139520000Y-106005000D03*
X136570000Y-106005000D03*
%TD*%
D19*
%TO.C,J1*%
X116955000Y-78045000D03*
D20*
X110655000Y-78045000D03*
D21*
X114055000Y-82845000D03*
%TD*%
D22*
%TO.C,C2*%
X129955000Y-100520000D03*
X129955000Y-97570000D03*
%TD*%
D23*
%TO.C,J3*%
X154205000Y-103545000D03*
X154205000Y-101045000D03*
X154205000Y-99045000D03*
X154205000Y-96545000D03*
D24*
X157905000Y-106445000D03*
X157905000Y-93645000D03*
%TD*%
D25*
%TO.C,R1*%
X132535000Y-104545000D03*
X122375000Y-104545000D03*
%TD*%
D26*
%TO.C,D2*%
X114955000Y-88925000D03*
D27*
X114955000Y-104165000D03*
%TD*%
D28*
%TO.C,P1*%
X109500000Y-91430000D03*
X109500000Y-97210000D03*
D29*
X110575000Y-91120000D03*
X110575000Y-91920000D03*
D30*
X110575000Y-93070000D03*
X110575000Y-94070000D03*
X110575000Y-94570000D03*
X110575000Y-95570000D03*
D29*
X110575000Y-96720000D03*
X110575000Y-97520000D03*
X110575000Y-97520000D03*
X110575000Y-96720000D03*
D30*
X110575000Y-96070000D03*
X110575000Y-95070000D03*
X110575000Y-93570000D03*
X110575000Y-92570000D03*
D29*
X110575000Y-91920000D03*
X110575000Y-91120000D03*
D31*
X110000000Y-90000000D03*
D32*
X105820000Y-90000000D03*
D31*
X110000000Y-98640000D03*
D32*
X105820000Y-98640000D03*
%TD*%
D33*
%TO.C,D1*%
X121455000Y-93165000D03*
D27*
X121455000Y-77925000D03*
%TD*%
D19*
%TO.C,J2*%
X154445000Y-86045000D03*
D20*
X160745000Y-86045000D03*
D21*
X157345000Y-81245000D03*
%TD*%
M02*
